<svg role="img" viewBox="0 0 24 24" xmlns="http://www.w3.org/2000/svg" fill="#2EC866">
  <path d="M11.968 1.472a1.996 1.996 0 0 0-1.025.28L3.655 5.952A1.998 1.998 0 0 0 2.63 7.68v8.423a1.997 1.997 0 0 0 1.025 1.728l7.288 4.2a2.002 2.002 0 0 0 2.05 0l7.288-4.2a2.001 2.001 0 0 0 1.026-1.728V7.68a1.998 1.998 0 0 0-1.026-1.728l-7.288-4.2a1.993 1.993 0 0 0-1.025-.28zM9.412 7.158c.249 0 .445.197.445.445v2.969h4.22V7.603c0-.248.196-.445.446-.445h1.782c.248 0 .445.197.445.445v8.618c0 .249-.197.446-.445.446h-1.782a.447.447 0 0 1-.446-.446v-3.04H9.857v3.04a.446.446 0 0 1-.445.446H7.63a.446.446 0 0 1-.446-.446V7.603c0-.248.197-.445.446-.445h1.782z"/>
</svg>
